<svg width="27" height="43" viewBox="0 0 27 43" fill="none" xmlns="http://www.w3.org/2000/svg">
<g clip-path="url(#clip0_35_1112)">
<path d="M7.61718 21.2481L9.43516 19.948L12.8985 22.8934L16.4482 20.4011L16.4455 18.13L12.9417 15.5352L3.63596 22.5886V29.0379L12.6423 36.032L12.68 42.3248L0 32.7601V20.4254L11.5121 11.554H14.498L20.4294 16.6168V22.5886L14.3254 27.3062L11.3826 27.3925L7.61718 24.1045V21.2481Z" fill="#2B73FF"/>
<path d="M23.4153 12.7017V22.795L25.0148 23.8335L27 22.447V10.792L23.4153 12.7017Z" fill="#2B73FF"/>
<path d="M14.4117 35.0756L22.509 27.9736L25.058 29.7323V31.4046L14.4117 40.3138V35.0756Z" fill="#2B73FF"/>
<path d="M13.0981 0L0 9.69411V18.8703L4.79041 15.2559V11.1372L13.0981 5.07902V0Z" fill="#2B73FF"/>
<path d="M14.4117 5.03586V0L16.691 1.84765L26.6467 9.28951L23.213 11.3395L14.4117 5.03586Z" fill="#2B73FF"/>
</g>
<defs>
<clipPath id="clip0_35_1112">
<rect width="27" height="42.3854" fill="white"/>
</clipPath>
</defs>
</svg>
