<svg width="344" height="85" viewBox="0 0 344 85" fill="none" xmlns="http://www.w3.org/2000/svg">
<path d="M0.5 10C0.5 4.47715 4.97715 0 10.5 0H333.5C339.023 0 343.5 4.47715 343.5 10V75C343.5 80.5229 339.023 85 333.5 85H10.5C4.97716 85 0.5 80.5229 0.5 75V10Z" fill="url(#paint0_linear_133_159)"/>
<path d="M71.5264 32.6396V34H66.2422V32.6396H71.5264ZM66.7275 24.0469V34H65.0117V24.0469H66.7275ZM70.8359 28.2031V29.543H66.2422V28.2031H70.8359ZM71.4922 24.0469V25.4141H66.2422V24.0469H71.4922ZM76.9336 32.5166V28.9893C76.9336 28.7249 76.8857 28.4971 76.79 28.3057C76.6943 28.1143 76.5485 27.9661 76.3525 27.8613C76.1611 27.7565 75.9196 27.7041 75.6279 27.7041C75.359 27.7041 75.1266 27.7497 74.9307 27.8408C74.7347 27.932 74.582 28.055 74.4727 28.21C74.3633 28.3649 74.3086 28.5404 74.3086 28.7363H72.668C72.668 28.4447 72.7386 28.1621 72.8799 27.8887C73.0212 27.6152 73.2262 27.3714 73.4951 27.1572C73.764 26.943 74.0853 26.7744 74.459 26.6514C74.8327 26.5283 75.252 26.4668 75.7168 26.4668C76.2728 26.4668 76.765 26.5602 77.1934 26.7471C77.6263 26.9339 77.9658 27.2165 78.2119 27.5947C78.4626 27.9684 78.5879 28.4378 78.5879 29.0029V32.291C78.5879 32.6283 78.6107 32.9313 78.6562 33.2002C78.7064 33.4645 78.777 33.6947 78.8682 33.8906V34H77.1797C77.1022 33.8223 77.0407 33.5967 76.9951 33.3232C76.9541 33.0452 76.9336 32.7764 76.9336 32.5166ZM77.1729 29.502L77.1865 30.5205H76.0039C75.6986 30.5205 75.4297 30.5501 75.1973 30.6094C74.9648 30.6641 74.7712 30.7461 74.6162 30.8555C74.4613 30.9648 74.3451 31.097 74.2676 31.252C74.1901 31.4069 74.1514 31.5824 74.1514 31.7783C74.1514 31.9743 74.1969 32.1543 74.2881 32.3184C74.3792 32.4779 74.5114 32.6032 74.6846 32.6943C74.8623 32.7855 75.0765 32.8311 75.3271 32.8311C75.6644 32.8311 75.9583 32.7627 76.209 32.626C76.4642 32.4847 76.6647 32.3138 76.8105 32.1133C76.9564 31.9082 77.0339 31.7145 77.043 31.5322L77.5762 32.2637C77.5215 32.4505 77.4281 32.651 77.2959 32.8652C77.1637 33.0794 76.9906 33.2845 76.7764 33.4805C76.5667 33.6719 76.3138 33.8291 76.0176 33.9521C75.7259 34.0752 75.3887 34.1367 75.0059 34.1367C74.5228 34.1367 74.0921 34.041 73.7139 33.8496C73.3356 33.6536 73.0394 33.3916 72.8252 33.0635C72.611 32.7308 72.5039 32.3548 72.5039 31.9355C72.5039 31.5436 72.5768 31.1973 72.7227 30.8965C72.873 30.5911 73.0918 30.3359 73.3789 30.1309C73.6706 29.9258 74.026 29.7708 74.4453 29.666C74.8646 29.5566 75.3431 29.502 75.8809 29.502H77.1729ZM81.9648 28.0117V34H80.3174V26.6035H81.8896L81.9648 28.0117ZM84.2275 26.5557L84.2139 28.0869C84.1136 28.0687 84.0042 28.055 83.8857 28.0459C83.7718 28.0368 83.6579 28.0322 83.5439 28.0322C83.2614 28.0322 83.013 28.0732 82.7988 28.1553C82.5846 28.2327 82.4046 28.3467 82.2588 28.4971C82.1175 28.6429 82.0081 28.8206 81.9307 29.0303C81.8532 29.2399 81.8076 29.4746 81.7939 29.7344L81.418 29.7617C81.418 29.2969 81.4635 28.8662 81.5547 28.4697C81.6458 28.0732 81.7826 27.7246 81.9648 27.4238C82.1517 27.123 82.3841 26.8883 82.6621 26.7197C82.9447 26.5511 83.2705 26.4668 83.6396 26.4668C83.7399 26.4668 83.847 26.4759 83.9609 26.4941C84.0794 26.5124 84.1683 26.5329 84.2275 26.5557ZM86.8936 28.1826V34H85.2461V26.6035H86.7979L86.8936 28.1826ZM86.5996 30.0283L86.0664 30.0215C86.071 29.4974 86.1439 29.0166 86.2852 28.5791C86.431 28.1416 86.6315 27.7656 86.8867 27.4512C87.1465 27.1367 87.4564 26.8952 87.8164 26.7266C88.1764 26.5534 88.5775 26.4668 89.0195 26.4668C89.375 26.4668 89.6963 26.5169 89.9834 26.6172C90.2751 26.7129 90.5234 26.8701 90.7285 27.0889C90.9382 27.3076 91.0977 27.5924 91.207 27.9434C91.3164 28.2897 91.3711 28.7158 91.3711 29.2217V34H89.7168V29.2148C89.7168 28.8594 89.6644 28.5791 89.5596 28.374C89.4593 28.1644 89.3112 28.0163 89.1152 27.9297C88.9238 27.8385 88.6846 27.793 88.3975 27.793C88.1149 27.793 87.862 27.8522 87.6387 27.9707C87.4154 28.0892 87.2262 28.251 87.0713 28.4561C86.9209 28.6611 86.8047 28.8981 86.7227 29.167C86.6406 29.4359 86.5996 29.723 86.5996 30.0283ZM100.989 32.2568V26.6035H102.644V34H101.085L100.989 32.2568ZM101.222 30.7188L101.775 30.7051C101.775 31.2018 101.721 31.6598 101.611 32.0791C101.502 32.4938 101.333 32.8561 101.105 33.166C100.878 33.4714 100.586 33.7106 100.23 33.8838C99.875 34.0524 99.4489 34.1367 98.9521 34.1367C98.5921 34.1367 98.2617 34.0843 97.9609 33.9795C97.6602 33.8747 97.4004 33.7129 97.1816 33.4941C96.9674 33.2754 96.8011 32.9906 96.6826 32.6396C96.5641 32.2887 96.5049 31.8695 96.5049 31.3818V26.6035H98.1523V31.3955C98.1523 31.6644 98.1842 31.89 98.248 32.0723C98.3118 32.25 98.3984 32.3936 98.5078 32.5029C98.6172 32.6123 98.7448 32.6898 98.8906 32.7354C99.0365 32.7809 99.1914 32.8037 99.3555 32.8037C99.8249 32.8037 100.194 32.7126 100.463 32.5303C100.736 32.3434 100.93 32.0928 101.044 31.7783C101.162 31.4639 101.222 31.1107 101.222 30.7188ZM105.986 28.0254V36.8438H104.339V26.6035H105.856L105.986 28.0254ZM110.806 30.2334V30.377C110.806 30.9147 110.742 31.4137 110.614 31.874C110.491 32.3298 110.307 32.7285 110.061 33.0703C109.819 33.4076 109.521 33.6696 109.165 33.8564C108.81 34.0433 108.399 34.1367 107.935 34.1367C107.474 34.1367 107.071 34.0524 106.725 33.8838C106.383 33.7106 106.093 33.4668 105.856 33.1523C105.619 32.8379 105.428 32.4688 105.282 32.0449C105.141 31.6165 105.041 31.1471 104.981 30.6367V30.083C105.041 29.5407 105.141 29.0485 105.282 28.6064C105.428 28.1644 105.619 27.7839 105.856 27.4648C106.093 27.1458 106.383 26.8997 106.725 26.7266C107.066 26.5534 107.465 26.4668 107.921 26.4668C108.386 26.4668 108.798 26.5579 109.158 26.7402C109.518 26.918 109.821 27.1732 110.067 27.5059C110.313 27.834 110.498 28.2305 110.621 28.6953C110.744 29.1556 110.806 29.6683 110.806 30.2334ZM109.158 30.377V30.2334C109.158 29.8916 109.126 29.5749 109.062 29.2832C108.999 28.987 108.898 28.7272 108.762 28.5039C108.625 28.2806 108.45 28.1074 108.235 27.9844C108.026 27.8568 107.773 27.793 107.477 27.793C107.185 27.793 106.934 27.8431 106.725 27.9434C106.515 28.0391 106.34 28.1735 106.198 28.3467C106.057 28.5199 105.948 28.7227 105.87 28.9551C105.793 29.1829 105.738 29.4313 105.706 29.7002V31.0264C105.761 31.3545 105.854 31.6553 105.986 31.9287C106.118 32.2021 106.305 32.4209 106.547 32.585C106.793 32.7445 107.107 32.8242 107.49 32.8242C107.786 32.8242 108.039 32.7604 108.249 32.6328C108.459 32.5052 108.63 32.3298 108.762 32.1064C108.898 31.8786 108.999 31.6165 109.062 31.3203C109.126 31.0241 109.158 30.7096 109.158 30.377ZM119.084 26.6035V27.8066H114.914V26.6035H119.084ZM116.117 24.792H117.765V31.9561C117.765 32.1839 117.797 32.3594 117.86 32.4824C117.929 32.6009 118.022 32.6807 118.141 32.7217C118.259 32.7627 118.398 32.7832 118.558 32.7832C118.672 32.7832 118.781 32.7764 118.886 32.7627C118.991 32.749 119.075 32.7354 119.139 32.7217L119.146 33.9795C119.009 34.0205 118.849 34.057 118.667 34.0889C118.489 34.1208 118.284 34.1367 118.052 34.1367C117.674 34.1367 117.339 34.0706 117.047 33.9385C116.755 33.8018 116.527 33.5807 116.363 33.2754C116.199 32.9701 116.117 32.5645 116.117 32.0586V24.792ZM119.877 30.3838V30.2266C119.877 29.6934 119.954 29.1989 120.109 28.7432C120.264 28.2829 120.488 27.8841 120.779 27.5469C121.076 27.2051 121.436 26.9408 121.859 26.7539C122.288 26.5625 122.771 26.4668 123.309 26.4668C123.851 26.4668 124.334 26.5625 124.758 26.7539C125.186 26.9408 125.549 27.2051 125.845 27.5469C126.141 27.8841 126.367 28.2829 126.521 28.7432C126.676 29.1989 126.754 29.6934 126.754 30.2266V30.3838C126.754 30.917 126.676 31.4115 126.521 31.8672C126.367 32.3229 126.141 32.7217 125.845 33.0635C125.549 33.4007 125.188 33.665 124.765 33.8564C124.341 34.0433 123.86 34.1367 123.322 34.1367C122.78 34.1367 122.295 34.0433 121.866 33.8564C121.442 33.665 121.082 33.4007 120.786 33.0635C120.49 32.7217 120.264 32.3229 120.109 31.8672C119.954 31.4115 119.877 30.917 119.877 30.3838ZM121.524 30.2266V30.3838C121.524 30.7165 121.559 31.0309 121.627 31.3271C121.695 31.6234 121.802 31.8831 121.948 32.1064C122.094 32.3298 122.281 32.5052 122.509 32.6328C122.737 32.7604 123.008 32.8242 123.322 32.8242C123.628 32.8242 123.892 32.7604 124.115 32.6328C124.343 32.5052 124.53 32.3298 124.676 32.1064C124.822 31.8831 124.929 31.6234 124.997 31.3271C125.07 31.0309 125.106 30.7165 125.106 30.3838V30.2266C125.106 29.8984 125.07 29.5885 124.997 29.2969C124.929 29.0007 124.819 28.7386 124.669 28.5107C124.523 28.2829 124.336 28.1051 124.108 27.9775C123.885 27.8454 123.618 27.7793 123.309 27.7793C122.999 27.7793 122.73 27.8454 122.502 27.9775C122.279 28.1051 122.094 28.2829 121.948 28.5107C121.802 28.7386 121.695 29.0007 121.627 29.2969C121.559 29.5885 121.524 29.8984 121.524 30.2266ZM133.46 28.2783H134.444C134.827 28.2783 135.144 28.2122 135.395 28.0801C135.65 27.9479 135.839 27.7656 135.962 27.5332C136.085 27.3008 136.146 27.0342 136.146 26.7334C136.146 26.4189 136.09 26.1501 135.976 25.9268C135.866 25.6989 135.698 25.5234 135.47 25.4004C135.246 25.2773 134.962 25.2158 134.615 25.2158C134.324 25.2158 134.059 25.2751 133.822 25.3936C133.59 25.5075 133.405 25.6715 133.269 25.8857C133.132 26.0954 133.063 26.346 133.063 26.6377H131.409C131.409 26.109 131.548 25.6396 131.826 25.2295C132.104 24.8193 132.482 24.498 132.961 24.2656C133.444 24.0286 133.986 23.9102 134.588 23.9102C135.23 23.9102 135.791 24.0173 136.27 24.2314C136.753 24.4411 137.129 24.7555 137.397 25.1748C137.666 25.5941 137.801 26.1136 137.801 26.7334C137.801 27.016 137.735 27.3031 137.603 27.5947C137.47 27.8864 137.274 28.153 137.015 28.3945C136.755 28.6315 136.431 28.8252 136.044 28.9756C135.657 29.1214 135.208 29.1943 134.697 29.1943H133.46V28.2783ZM133.46 29.5635V28.6611H134.697C135.281 28.6611 135.777 28.7295 136.188 28.8662C136.602 29.0029 136.939 29.1921 137.199 29.4336C137.459 29.6706 137.648 29.9417 137.767 30.2471C137.89 30.5524 137.951 30.876 137.951 31.2178C137.951 31.6826 137.867 32.0973 137.698 32.4619C137.534 32.8219 137.299 33.1273 136.994 33.3779C136.689 33.6286 136.331 33.8177 135.921 33.9453C135.515 34.0729 135.073 34.1367 134.595 34.1367C134.166 34.1367 133.756 34.0775 133.364 33.959C132.972 33.8405 132.621 33.665 132.312 33.4326C132.002 33.1956 131.756 32.9017 131.573 32.5508C131.396 32.1953 131.307 31.7852 131.307 31.3203H132.954C132.954 31.6165 133.022 31.8786 133.159 32.1064C133.3 32.3298 133.496 32.5052 133.747 32.6328C134.002 32.7604 134.294 32.8242 134.622 32.8242C134.968 32.8242 135.267 32.7627 135.518 32.6396C135.768 32.5166 135.96 32.3343 136.092 32.0928C136.229 31.8512 136.297 31.5596 136.297 31.2178C136.297 30.8304 136.222 30.516 136.071 30.2744C135.921 30.0329 135.707 29.8551 135.429 29.7412C135.151 29.6227 134.823 29.5635 134.444 29.5635H133.46ZM145.97 28.1895V29.8164C145.97 30.5957 145.892 31.2611 145.737 31.8125C145.587 32.3594 145.368 32.8037 145.081 33.1455C144.794 33.4873 144.45 33.738 144.049 33.8975C143.652 34.057 143.208 34.1367 142.716 34.1367C142.324 34.1367 141.959 34.0866 141.622 33.9863C141.289 33.8861 140.989 33.7288 140.72 33.5146C140.451 33.3005 140.221 33.0247 140.029 32.6875C139.842 32.3457 139.697 31.9378 139.592 31.4639C139.492 30.9899 139.441 30.4408 139.441 29.8164V28.1895C139.441 27.4056 139.519 26.7448 139.674 26.207C139.829 25.6647 140.05 25.2249 140.337 24.8877C140.624 24.5459 140.966 24.2975 141.362 24.1426C141.763 23.9876 142.21 23.9102 142.702 23.9102C143.099 23.9102 143.463 23.9603 143.796 24.0605C144.133 24.1562 144.434 24.3089 144.698 24.5186C144.967 24.7282 145.195 25.0016 145.382 25.3389C145.573 25.6715 145.719 26.0749 145.819 26.5488C145.92 27.0182 145.97 27.5651 145.97 28.1895ZM144.322 30.0488V27.9434C144.322 27.5469 144.299 27.1982 144.254 26.8975C144.208 26.5921 144.14 26.3346 144.049 26.125C143.962 25.9108 143.853 25.7376 143.721 25.6055C143.589 25.4688 143.438 25.3708 143.27 25.3115C143.101 25.2477 142.912 25.2158 142.702 25.2158C142.447 25.2158 142.219 25.266 142.019 25.3662C141.818 25.4619 141.649 25.6169 141.513 25.8311C141.376 26.0452 141.271 26.3278 141.198 26.6787C141.13 27.0251 141.096 27.4466 141.096 27.9434V30.0488C141.096 30.4499 141.118 30.8031 141.164 31.1084C141.21 31.4137 141.278 31.6758 141.369 31.8945C141.46 32.1087 141.57 32.2865 141.697 32.4277C141.829 32.5645 141.98 32.6647 142.148 32.7285C142.322 32.7923 142.511 32.8242 142.716 32.8242C142.976 32.8242 143.206 32.7741 143.406 32.6738C143.607 32.5736 143.775 32.4141 143.912 32.1953C144.049 31.972 144.151 31.6826 144.22 31.3271C144.288 30.9717 144.322 30.5456 144.322 30.0488ZM147.371 26.4873V25.9609C147.371 25.5827 147.453 25.2386 147.617 24.9287C147.781 24.6188 148.021 24.3704 148.335 24.1836C148.649 23.9967 149.028 23.9033 149.47 23.9033C149.925 23.9033 150.308 23.9967 150.618 24.1836C150.933 24.3704 151.172 24.6188 151.336 24.9287C151.5 25.2386 151.582 25.5827 151.582 25.9609V26.4873C151.582 26.8564 151.5 27.196 151.336 27.5059C151.176 27.8158 150.939 28.0641 150.625 28.251C150.315 28.4378 149.935 28.5312 149.483 28.5312C149.037 28.5312 148.654 28.4378 148.335 28.251C148.021 28.0641 147.781 27.8158 147.617 27.5059C147.453 27.196 147.371 26.8564 147.371 26.4873ZM148.513 25.9609V26.4873C148.513 26.6696 148.547 26.8428 148.615 27.0068C148.688 27.1709 148.798 27.3031 148.943 27.4033C149.089 27.5036 149.269 27.5537 149.483 27.5537C149.702 27.5537 149.88 27.5036 150.017 27.4033C150.158 27.3031 150.263 27.1709 150.331 27.0068C150.399 26.8428 150.434 26.6696 150.434 26.4873V25.9609C150.434 25.7741 150.397 25.5986 150.324 25.4346C150.256 25.266 150.151 25.1315 150.01 25.0312C149.868 24.931 149.688 24.8809 149.47 24.8809C149.26 24.8809 149.082 24.931 148.937 25.0312C148.795 25.1315 148.688 25.266 148.615 25.4346C148.547 25.5986 148.513 25.7741 148.513 25.9609ZM152.17 32.0928V31.5596C152.17 31.1859 152.252 30.8441 152.416 30.5342C152.585 30.2243 152.826 29.9759 153.141 29.7891C153.455 29.6022 153.833 29.5088 154.275 29.5088C154.731 29.5088 155.114 29.6022 155.424 29.7891C155.738 29.9759 155.975 30.2243 156.135 30.5342C156.299 30.8441 156.381 31.1859 156.381 31.5596V32.0928C156.381 32.4665 156.299 32.8083 156.135 33.1182C155.975 33.4281 155.741 33.6764 155.431 33.8633C155.121 34.0501 154.743 34.1436 154.296 34.1436C153.845 34.1436 153.46 34.0501 153.141 33.8633C152.826 33.6764 152.585 33.4281 152.416 33.1182C152.252 32.8083 152.17 32.4665 152.17 32.0928ZM153.318 31.5596V32.0928C153.318 32.2751 153.355 32.4482 153.428 32.6123C153.505 32.7764 153.617 32.9108 153.763 33.0156C153.909 33.1159 154.084 33.166 154.289 33.166C154.521 33.166 154.708 33.1159 154.85 33.0156C154.991 32.9108 155.091 32.7786 155.15 32.6191C155.214 32.4551 155.246 32.2796 155.246 32.0928V31.5596C155.246 31.3727 155.21 31.1973 155.137 31.0332C155.068 30.8691 154.961 30.737 154.815 30.6367C154.674 30.5365 154.494 30.4863 154.275 30.4863C154.061 30.4863 153.883 30.5365 153.742 30.6367C153.601 30.737 153.494 30.8691 153.421 31.0332C153.353 31.1973 153.318 31.3727 153.318 31.5596ZM154.686 25.4688L149.825 33.248L148.984 32.7627L153.845 24.9834L154.686 25.4688ZM163.477 33.1934L165.486 26.6035H167.25L164.283 35.1279C164.215 35.3102 164.126 35.5085 164.017 35.7227C163.907 35.9368 163.764 36.1396 163.586 36.3311C163.413 36.527 163.196 36.6842 162.937 36.8027C162.677 36.9258 162.362 36.9873 161.993 36.9873C161.847 36.9873 161.706 36.9736 161.569 36.9463C161.437 36.9235 161.312 36.8984 161.193 36.8711L161.187 35.6133C161.232 35.6178 161.287 35.6224 161.351 35.627C161.419 35.6315 161.474 35.6338 161.515 35.6338C161.788 35.6338 162.016 35.5996 162.198 35.5312C162.381 35.4674 162.529 35.3626 162.643 35.2168C162.761 35.071 162.861 34.875 162.943 34.6289L163.477 33.1934ZM162.342 26.6035L164.099 32.1406L164.393 33.877L163.251 34.1709L160.564 26.6035H162.342ZM169.957 26.6035V34H168.303V26.6035H169.957ZM168.193 24.6621C168.193 24.4115 168.275 24.2041 168.439 24.04C168.608 23.8714 168.84 23.7871 169.137 23.7871C169.428 23.7871 169.659 23.8714 169.827 24.04C169.996 24.2041 170.08 24.4115 170.08 24.6621C170.08 24.9082 169.996 25.1133 169.827 25.2773C169.659 25.4414 169.428 25.5234 169.137 25.5234C168.84 25.5234 168.608 25.4414 168.439 25.2773C168.275 25.1133 168.193 24.9082 168.193 24.6621ZM175.022 34.1367C174.476 34.1367 173.981 34.0479 173.539 33.8701C173.102 33.6878 172.728 33.4349 172.418 33.1113C172.113 32.7878 171.878 32.4072 171.714 31.9697C171.55 31.5322 171.468 31.0605 171.468 30.5547V30.2812C171.468 29.7025 171.552 29.1784 171.721 28.709C171.889 28.2396 172.124 27.8385 172.425 27.5059C172.726 27.1686 173.081 26.9111 173.491 26.7334C173.901 26.5557 174.346 26.4668 174.824 26.4668C175.353 26.4668 175.815 26.5557 176.212 26.7334C176.608 26.9111 176.937 27.1618 177.196 27.4854C177.461 27.8044 177.657 28.1849 177.784 28.627C177.916 29.069 177.982 29.5566 177.982 30.0898V30.7939H172.268V29.6113H176.355V29.4814C176.346 29.1852 176.287 28.9072 176.178 28.6475C176.073 28.3877 175.911 28.1781 175.692 28.0186C175.474 27.859 175.182 27.7793 174.817 27.7793C174.544 27.7793 174.3 27.8385 174.086 27.957C173.876 28.071 173.701 28.2373 173.56 28.4561C173.418 28.6748 173.309 28.9391 173.231 29.249C173.159 29.5544 173.122 29.8984 173.122 30.2812V30.5547C173.122 30.8783 173.165 31.179 173.252 31.457C173.343 31.7305 173.475 31.9697 173.648 32.1748C173.822 32.3799 174.031 32.5417 174.277 32.6602C174.523 32.7741 174.804 32.8311 175.118 32.8311C175.515 32.8311 175.868 32.7513 176.178 32.5918C176.488 32.4323 176.757 32.2067 176.984 31.915L177.853 32.7559C177.693 32.9883 177.486 33.2116 177.23 33.4258C176.975 33.6354 176.663 33.8063 176.294 33.9385C175.929 34.0706 175.506 34.1367 175.022 34.1367ZM181.031 23.5V34H179.377V23.5H181.031ZM187.348 32.4688V23.5H189.002V34H187.505L187.348 32.4688ZM182.535 30.3838V30.2402C182.535 29.6797 182.601 29.1693 182.733 28.709C182.866 28.2441 183.057 27.8454 183.308 27.5127C183.558 27.1755 183.864 26.918 184.224 26.7402C184.584 26.5579 184.989 26.4668 185.44 26.4668C185.887 26.4668 186.279 26.5534 186.616 26.7266C186.953 26.8997 187.241 27.1481 187.478 27.4717C187.715 27.7907 187.904 28.1735 188.045 28.6201C188.186 29.0622 188.286 29.5544 188.346 30.0967V30.5547C188.286 31.0833 188.186 31.5664 188.045 32.0039C187.904 32.4414 187.715 32.8197 187.478 33.1387C187.241 33.4577 186.951 33.7038 186.609 33.877C186.272 34.0501 185.878 34.1367 185.427 34.1367C184.98 34.1367 184.577 34.0433 184.217 33.8564C183.861 33.6696 183.558 33.4076 183.308 33.0703C183.057 32.7331 182.866 32.3366 182.733 31.8809C182.601 31.4206 182.535 30.9215 182.535 30.3838ZM184.183 30.2402V30.3838C184.183 30.721 184.212 31.0355 184.271 31.3271C184.335 31.6188 184.433 31.8763 184.565 32.0996C184.698 32.3184 184.868 32.4915 185.078 32.6191C185.292 32.7422 185.548 32.8037 185.844 32.8037C186.217 32.8037 186.525 32.7217 186.767 32.5576C187.008 32.3936 187.197 32.1725 187.334 31.8945C187.475 31.612 187.571 31.2975 187.621 30.9512V29.7139C187.594 29.445 187.537 29.1943 187.45 28.9619C187.368 28.7295 187.257 28.5267 187.115 28.3535C186.974 28.1758 186.799 28.0391 186.589 27.9434C186.384 27.8431 186.14 27.793 185.857 27.793C185.557 27.793 185.301 27.8568 185.092 27.9844C184.882 28.112 184.709 28.2874 184.572 28.5107C184.44 28.734 184.342 28.9938 184.278 29.29C184.215 29.5863 184.183 29.903 184.183 30.2402ZM193.896 30.3838V30.2266C193.896 29.6934 193.974 29.1989 194.129 28.7432C194.284 28.2829 194.507 27.8841 194.799 27.5469C195.095 27.2051 195.455 26.9408 195.879 26.7539C196.307 26.5625 196.79 26.4668 197.328 26.4668C197.87 26.4668 198.354 26.5625 198.777 26.7539C199.206 26.9408 199.568 27.2051 199.864 27.5469C200.16 27.8841 200.386 28.2829 200.541 28.7432C200.696 29.1989 200.773 29.6934 200.773 30.2266V30.3838C200.773 30.917 200.696 31.4115 200.541 31.8672C200.386 32.3229 200.16 32.7217 199.864 33.0635C199.568 33.4007 199.208 33.665 198.784 33.8564C198.36 34.0433 197.88 34.1367 197.342 34.1367C196.799 34.1367 196.314 34.0433 195.886 33.8564C195.462 33.665 195.102 33.4007 194.806 33.0635C194.509 32.7217 194.284 32.3229 194.129 31.8672C193.974 31.4115 193.896 30.917 193.896 30.3838ZM195.544 30.2266V30.3838C195.544 30.7165 195.578 31.0309 195.646 31.3271C195.715 31.6234 195.822 31.8831 195.968 32.1064C196.114 32.3298 196.3 32.5052 196.528 32.6328C196.756 32.7604 197.027 32.8242 197.342 32.8242C197.647 32.8242 197.911 32.7604 198.135 32.6328C198.363 32.5052 198.549 32.3298 198.695 32.1064C198.841 31.8831 198.948 31.6234 199.017 31.3271C199.09 31.0309 199.126 30.7165 199.126 30.3838V30.2266C199.126 29.8984 199.09 29.5885 199.017 29.2969C198.948 29.0007 198.839 28.7386 198.688 28.5107C198.543 28.2829 198.356 28.1051 198.128 27.9775C197.905 27.8454 197.638 27.7793 197.328 27.7793C197.018 27.7793 196.749 27.8454 196.521 27.9775C196.298 28.1051 196.114 28.2829 195.968 28.5107C195.822 28.7386 195.715 29.0007 195.646 29.2969C195.578 29.5885 195.544 29.8984 195.544 30.2266ZM203.788 28.1826V34H202.141V26.6035H203.692L203.788 28.1826ZM203.494 30.0283L202.961 30.0215C202.965 29.4974 203.038 29.0166 203.18 28.5791C203.326 28.1416 203.526 27.7656 203.781 27.4512C204.041 27.1367 204.351 26.8952 204.711 26.7266C205.071 26.5534 205.472 26.4668 205.914 26.4668C206.27 26.4668 206.591 26.5169 206.878 26.6172C207.17 26.7129 207.418 26.8701 207.623 27.0889C207.833 27.3076 207.992 27.5924 208.102 27.9434C208.211 28.2897 208.266 28.7158 208.266 29.2217V34H206.611V29.2148C206.611 28.8594 206.559 28.5791 206.454 28.374C206.354 28.1644 206.206 28.0163 206.01 27.9297C205.818 27.8385 205.579 27.793 205.292 27.793C205.009 27.793 204.757 27.8522 204.533 27.9707C204.31 28.0892 204.121 28.251 203.966 28.4561C203.815 28.6611 203.699 28.8981 203.617 29.167C203.535 29.4359 203.494 29.723 203.494 30.0283ZM213.263 29.0918V30.4043H209.646V29.0918H213.263ZM217.727 32.8242C217.995 32.8242 218.237 32.7718 218.451 32.667C218.67 32.5576 218.845 32.4072 218.978 32.2158C219.114 32.0244 219.189 31.8034 219.203 31.5527H220.755C220.746 32.0312 220.604 32.4665 220.331 32.8584C220.058 33.2503 219.695 33.5625 219.244 33.7949C218.793 34.0228 218.294 34.1367 217.747 34.1367C217.182 34.1367 216.69 34.041 216.271 33.8496C215.851 33.6536 215.503 33.3848 215.225 33.043C214.947 32.7012 214.737 32.307 214.596 31.8604C214.459 31.4137 214.391 30.9352 214.391 30.4248V30.1855C214.391 29.6751 214.459 29.1966 214.596 28.75C214.737 28.2988 214.947 27.9023 215.225 27.5605C215.503 27.2188 215.851 26.9521 216.271 26.7607C216.69 26.5648 217.18 26.4668 217.74 26.4668C218.333 26.4668 218.852 26.5853 219.299 26.8223C219.745 27.0547 220.096 27.3805 220.352 27.7998C220.611 28.2145 220.746 28.6976 220.755 29.249H219.203C219.189 28.9756 219.121 28.7295 218.998 28.5107C218.88 28.2874 218.711 28.1097 218.492 27.9775C218.278 27.8454 218.021 27.7793 217.72 27.7793C217.387 27.7793 217.111 27.8477 216.893 27.9844C216.674 28.1165 216.503 28.2988 216.38 28.5312C216.257 28.7591 216.168 29.0166 216.113 29.3037C216.063 29.5863 216.038 29.8802 216.038 30.1855V30.4248C216.038 30.7301 216.063 31.0264 216.113 31.3135C216.163 31.6006 216.25 31.8581 216.373 32.0859C216.501 32.3092 216.674 32.4893 216.893 32.626C217.111 32.7581 217.389 32.8242 217.727 32.8242ZM223.646 23.5V34H222.006V23.5H223.646ZM223.359 30.0283L222.826 30.0215C222.831 29.5111 222.901 29.0394 223.038 28.6064C223.179 28.1735 223.375 27.7975 223.626 27.4785C223.881 27.1549 224.187 26.9066 224.542 26.7334C224.897 26.5557 225.292 26.4668 225.725 26.4668C226.089 26.4668 226.417 26.5169 226.709 26.6172C227.005 26.7174 227.26 26.8792 227.475 27.1025C227.689 27.3213 227.851 27.6084 227.96 27.9639C228.074 28.3148 228.131 28.7432 228.131 29.249V34H226.477V29.2354C226.477 28.8799 226.424 28.5973 226.319 28.3877C226.219 28.1781 226.071 28.0277 225.875 27.9365C225.679 27.8408 225.44 27.793 225.157 27.793C224.861 27.793 224.599 27.8522 224.371 27.9707C224.148 28.0892 223.961 28.251 223.811 28.4561C223.66 28.6611 223.546 28.8981 223.469 29.167C223.396 29.4359 223.359 29.723 223.359 30.0283ZM233.969 32.5166V28.9893C233.969 28.7249 233.921 28.4971 233.825 28.3057C233.729 28.1143 233.584 27.9661 233.388 27.8613C233.196 27.7565 232.955 27.7041 232.663 27.7041C232.394 27.7041 232.162 27.7497 231.966 27.8408C231.77 27.932 231.617 28.055 231.508 28.21C231.398 28.3649 231.344 28.5404 231.344 28.7363H229.703C229.703 28.4447 229.774 28.1621 229.915 27.8887C230.056 27.6152 230.261 27.3714 230.53 27.1572C230.799 26.943 231.12 26.7744 231.494 26.6514C231.868 26.5283 232.287 26.4668 232.752 26.4668C233.308 26.4668 233.8 26.5602 234.229 26.7471C234.661 26.9339 235.001 27.2165 235.247 27.5947C235.498 27.9684 235.623 28.4378 235.623 29.0029V32.291C235.623 32.6283 235.646 32.9313 235.691 33.2002C235.742 33.4645 235.812 33.6947 235.903 33.8906V34H234.215C234.137 33.8223 234.076 33.5967 234.03 33.3232C233.989 33.0452 233.969 32.7764 233.969 32.5166ZM234.208 29.502L234.222 30.5205H233.039C232.734 30.5205 232.465 30.5501 232.232 30.6094C232 30.6641 231.806 30.7461 231.651 30.8555C231.496 30.9648 231.38 31.097 231.303 31.252C231.225 31.4069 231.187 31.5824 231.187 31.7783C231.187 31.9743 231.232 32.1543 231.323 32.3184C231.414 32.4779 231.547 32.6032 231.72 32.6943C231.897 32.7855 232.112 32.8311 232.362 32.8311C232.7 32.8311 232.993 32.7627 233.244 32.626C233.499 32.4847 233.7 32.3138 233.846 32.1133C233.992 31.9082 234.069 31.7145 234.078 31.5322L234.611 32.2637C234.557 32.4505 234.463 32.651 234.331 32.8652C234.199 33.0794 234.026 33.2845 233.812 33.4805C233.602 33.6719 233.349 33.8291 233.053 33.9521C232.761 34.0752 232.424 34.1367 232.041 34.1367C231.558 34.1367 231.127 34.041 230.749 33.8496C230.371 33.6536 230.075 33.3916 229.86 33.0635C229.646 32.7308 229.539 32.3548 229.539 31.9355C229.539 31.5436 229.612 31.1973 229.758 30.8965C229.908 30.5911 230.127 30.3359 230.414 30.1309C230.706 29.9258 231.061 29.7708 231.48 29.666C231.9 29.5566 232.378 29.502 232.916 29.502H234.208ZM239.109 26.6035V34H237.455V26.6035H239.109ZM237.346 24.6621C237.346 24.4115 237.428 24.2041 237.592 24.04C237.76 23.8714 237.993 23.7871 238.289 23.7871C238.581 23.7871 238.811 23.8714 238.979 24.04C239.148 24.2041 239.232 24.4115 239.232 24.6621C239.232 24.9082 239.148 25.1133 238.979 25.2773C238.811 25.4414 238.581 25.5234 238.289 25.5234C237.993 25.5234 237.76 25.4414 237.592 25.2773C237.428 25.1133 237.346 24.9082 237.346 24.6621ZM242.548 28.1826V34H240.9V26.6035H242.452L242.548 28.1826ZM242.254 30.0283L241.721 30.0215C241.725 29.4974 241.798 29.0166 241.939 28.5791C242.085 28.1416 242.286 27.7656 242.541 27.4512C242.801 27.1367 243.111 26.8952 243.471 26.7266C243.831 26.5534 244.232 26.4668 244.674 26.4668C245.029 26.4668 245.351 26.5169 245.638 26.6172C245.929 26.7129 246.178 26.8701 246.383 27.0889C246.592 27.3076 246.752 27.5924 246.861 27.9434C246.971 28.2897 247.025 28.7158 247.025 29.2217V34H245.371V29.2148C245.371 28.8594 245.319 28.5791 245.214 28.374C245.114 28.1644 244.965 28.0163 244.77 27.9297C244.578 27.8385 244.339 27.793 244.052 27.793C243.769 27.793 243.516 27.8522 243.293 27.9707C243.07 28.0892 242.881 28.251 242.726 28.4561C242.575 28.6611 242.459 28.8981 242.377 29.167C242.295 29.4359 242.254 29.723 242.254 30.0283Z" fill="white"/>
<rect x="64" y="45" width="96" height="22" rx="10" fill="#2B73FF"/>
<path d="M82.5371 57.8438C82.5371 57.6445 82.5059 57.4688 82.4434 57.3164C82.3848 57.1602 82.2793 57.0195 82.127 56.8945C81.9785 56.7695 81.7715 56.6504 81.5059 56.5371C81.2441 56.4238 80.9121 56.3086 80.5098 56.1914C80.0879 56.0664 79.707 55.9277 79.3672 55.7754C79.0273 55.6191 78.7363 55.4414 78.4941 55.2422C78.252 55.043 78.0664 54.8145 77.9375 54.5566C77.8086 54.2988 77.7441 54.0039 77.7441 53.6719C77.7441 53.3398 77.8125 53.0332 77.9492 52.752C78.0859 52.4707 78.2812 52.2266 78.5352 52.0195C78.793 51.8086 79.0996 51.6445 79.4551 51.5273C79.8105 51.4102 80.207 51.3516 80.6445 51.3516C81.2852 51.3516 81.8281 51.4746 82.2734 51.7207C82.7227 51.9629 83.0645 52.2812 83.2988 52.6758C83.5332 53.0664 83.6504 53.4844 83.6504 53.9297H82.5254C82.5254 53.6094 82.457 53.3262 82.3203 53.0801C82.1836 52.8301 81.9766 52.6348 81.6992 52.4941C81.4219 52.3496 81.0703 52.2773 80.6445 52.2773C80.2422 52.2773 79.9102 52.3379 79.6484 52.459C79.3867 52.5801 79.1914 52.7441 79.0625 52.9512C78.9375 53.1582 78.875 53.3945 78.875 53.6602C78.875 53.8398 78.9121 54.0039 78.9863 54.1523C79.0645 54.2969 79.1836 54.4316 79.3438 54.5566C79.5078 54.6816 79.7148 54.7969 79.9648 54.9023C80.2188 55.0078 80.5215 55.1094 80.873 55.207C81.3574 55.3438 81.7754 55.4961 82.127 55.6641C82.4785 55.832 82.7676 56.0215 82.9941 56.2324C83.2246 56.4395 83.3945 56.6758 83.5039 56.9414C83.6172 57.2031 83.6738 57.5 83.6738 57.832C83.6738 58.1797 83.6035 58.4941 83.4629 58.7754C83.3223 59.0566 83.1211 59.2969 82.8594 59.4961C82.5977 59.6953 82.2832 59.8496 81.916 59.959C81.5527 60.0645 81.1465 60.1172 80.6973 60.1172C80.3027 60.1172 79.9141 60.0625 79.5312 59.9531C79.1523 59.8438 78.8066 59.6797 78.4941 59.4609C78.1855 59.2422 77.9375 58.9727 77.75 58.6523C77.5664 58.3281 77.4746 57.9531 77.4746 57.5273H78.5996C78.5996 57.8203 78.6562 58.0723 78.7695 58.2832C78.8828 58.4902 79.0371 58.6621 79.2324 58.7988C79.4316 58.9355 79.6562 59.0371 79.9062 59.1035C80.1602 59.166 80.4238 59.1973 80.6973 59.1973C81.0918 59.1973 81.4258 59.1426 81.6992 59.0332C81.9727 58.9238 82.1797 58.7676 82.3203 58.5645C82.4648 58.3613 82.5371 58.1211 82.5371 57.8438ZM87.6055 53.6602V54.4922H84.1777V53.6602H87.6055ZM85.3379 52.1191H86.4219V58.4297C86.4219 58.6445 86.4551 58.8066 86.5215 58.916C86.5879 59.0254 86.6738 59.0977 86.7793 59.1328C86.8848 59.168 86.998 59.1855 87.1191 59.1855C87.209 59.1855 87.3027 59.1777 87.4004 59.1621C87.502 59.1426 87.5781 59.127 87.6289 59.1152L87.6348 60C87.5488 60.0273 87.4355 60.0527 87.2949 60.0762C87.1582 60.1035 86.9922 60.1172 86.7969 60.1172C86.5312 60.1172 86.2871 60.0645 86.0645 59.959C85.8418 59.8535 85.6641 59.6777 85.5312 59.4316C85.4023 59.1816 85.3379 58.8457 85.3379 58.4238V52.1191ZM92.6152 58.916V55.6523C92.6152 55.4023 92.5645 55.1855 92.4629 55.002C92.3652 54.8145 92.2168 54.6699 92.0176 54.5684C91.8184 54.4668 91.5723 54.416 91.2793 54.416C91.0059 54.416 90.7656 54.4629 90.5586 54.5566C90.3555 54.6504 90.1953 54.7734 90.0781 54.9258C89.9648 55.0781 89.9082 55.2422 89.9082 55.418H88.8242C88.8242 55.1914 88.8828 54.9668 89 54.7441C89.1172 54.5215 89.2852 54.3203 89.5039 54.1406C89.7266 53.957 89.9922 53.8125 90.3008 53.707C90.6133 53.5977 90.9609 53.543 91.3438 53.543C91.8047 53.543 92.2109 53.6211 92.5625 53.7773C92.918 53.9336 93.1953 54.1699 93.3945 54.4863C93.5977 54.7988 93.6992 55.1914 93.6992 55.6641V58.6172C93.6992 58.8281 93.7168 59.0527 93.752 59.291C93.791 59.5293 93.8477 59.7344 93.9219 59.9062V60H92.791C92.7363 59.875 92.6934 59.709 92.6621 59.502C92.6309 59.291 92.6152 59.0957 92.6152 58.916ZM92.8027 56.1562L92.8145 56.918H91.7188C91.4102 56.918 91.1348 56.9434 90.8926 56.9941C90.6504 57.041 90.4473 57.1133 90.2832 57.2109C90.1191 57.3086 89.9941 57.4316 89.9082 57.5801C89.8223 57.7246 89.7793 57.8945 89.7793 58.0898C89.7793 58.2891 89.8242 58.4707 89.9141 58.6348C90.0039 58.7988 90.1387 58.9297 90.3184 59.0273C90.502 59.1211 90.7266 59.168 90.9922 59.168C91.3242 59.168 91.6172 59.0977 91.8711 58.957C92.125 58.8164 92.3262 58.6445 92.4746 58.4414C92.627 58.2383 92.709 58.041 92.7207 57.8496L93.1836 58.3711C93.1562 58.5352 93.082 58.7168 92.9609 58.916C92.8398 59.1152 92.6777 59.3066 92.4746 59.4902C92.2754 59.6699 92.0371 59.8203 91.7598 59.9414C91.4863 60.0586 91.1777 60.1172 90.834 60.1172C90.4043 60.1172 90.0273 60.0332 89.7031 59.8652C89.3828 59.6973 89.1328 59.4727 88.9531 59.1914C88.7773 58.9062 88.6895 58.5879 88.6895 58.2363C88.6895 57.8965 88.7559 57.5977 88.8887 57.3398C89.0215 57.0781 89.2129 56.8613 89.4629 56.6895C89.7129 56.5137 90.0137 56.3809 90.3652 56.291C90.7168 56.2012 91.1094 56.1562 91.543 56.1562H92.8027ZM96.4883 54.6562V60H95.4043V53.6602H96.459L96.4883 54.6562ZM98.4688 53.625L98.4629 54.6328C98.373 54.6133 98.2871 54.6016 98.2051 54.5977C98.127 54.5898 98.0371 54.5859 97.9355 54.5859C97.6855 54.5859 97.4648 54.625 97.2734 54.7031C97.082 54.7812 96.9199 54.8906 96.7871 55.0312C96.6543 55.1719 96.5488 55.3398 96.4707 55.5352C96.3965 55.7266 96.3477 55.9375 96.3242 56.168L96.0195 56.3438C96.0195 55.9609 96.0566 55.6016 96.1309 55.2656C96.209 54.9297 96.3281 54.6328 96.4883 54.375C96.6484 54.1133 96.8516 53.9102 97.0977 53.7656C97.3477 53.6172 97.6445 53.543 97.9883 53.543C98.0664 53.543 98.1562 53.5527 98.2578 53.5723C98.3594 53.5879 98.4297 53.6055 98.4688 53.625ZM102.418 53.6602V54.4922H98.9902V53.6602H102.418ZM100.15 52.1191H101.234V58.4297C101.234 58.6445 101.268 58.8066 101.334 58.916C101.4 59.0254 101.486 59.0977 101.592 59.1328C101.697 59.168 101.811 59.1855 101.932 59.1855C102.021 59.1855 102.115 59.1777 102.213 59.1621C102.314 59.1426 102.391 59.127 102.441 59.1152L102.447 60C102.361 60.0273 102.248 60.0527 102.107 60.0762C101.971 60.1035 101.805 60.1172 101.609 60.1172C101.344 60.1172 101.1 60.0645 100.877 59.959C100.654 59.8535 100.477 59.6777 100.344 59.4316C100.215 59.1816 100.15 58.8457 100.15 58.4238V52.1191ZM109.297 60.1172C108.855 60.1172 108.455 60.043 108.096 59.8945C107.74 59.7422 107.434 59.5293 107.176 59.2559C106.922 58.9824 106.727 58.6582 106.59 58.2832C106.453 57.9082 106.385 57.498 106.385 57.0527V56.8066C106.385 56.291 106.461 55.832 106.613 55.4297C106.766 55.0234 106.973 54.6797 107.234 54.3984C107.496 54.1172 107.793 53.9043 108.125 53.7598C108.457 53.6152 108.801 53.543 109.156 53.543C109.609 53.543 110 53.6211 110.328 53.7773C110.66 53.9336 110.932 54.1523 111.143 54.4336C111.354 54.7109 111.51 55.0391 111.611 55.418C111.713 55.793 111.764 56.2031 111.764 56.6484V57.1348H107.029V56.25H110.68V56.168C110.664 55.8867 110.605 55.6133 110.504 55.3477C110.406 55.082 110.25 54.8633 110.035 54.6914C109.82 54.5195 109.527 54.4336 109.156 54.4336C108.91 54.4336 108.684 54.4863 108.477 54.5918C108.27 54.6934 108.092 54.8457 107.943 55.0488C107.795 55.252 107.68 55.5 107.598 55.793C107.516 56.0859 107.475 56.4238 107.475 56.8066V57.0527C107.475 57.3535 107.516 57.6367 107.598 57.9023C107.684 58.1641 107.807 58.3945 107.967 58.5938C108.131 58.793 108.328 58.9492 108.559 59.0625C108.793 59.1758 109.059 59.2324 109.355 59.2324C109.738 59.2324 110.062 59.1543 110.328 58.998C110.594 58.8418 110.826 58.6328 111.025 58.3711L111.682 58.8926C111.545 59.0996 111.371 59.2969 111.16 59.4844C110.949 59.6719 110.689 59.8242 110.381 59.9414C110.076 60.0586 109.715 60.1172 109.297 60.1172ZM116.768 58.916V55.6523C116.768 55.4023 116.717 55.1855 116.615 55.002C116.518 54.8145 116.369 54.6699 116.17 54.5684C115.971 54.4668 115.725 54.416 115.432 54.416C115.158 54.416 114.918 54.4629 114.711 54.5566C114.508 54.6504 114.348 54.7734 114.23 54.9258C114.117 55.0781 114.061 55.2422 114.061 55.418H112.977C112.977 55.1914 113.035 54.9668 113.152 54.7441C113.27 54.5215 113.438 54.3203 113.656 54.1406C113.879 53.957 114.145 53.8125 114.453 53.707C114.766 53.5977 115.113 53.543 115.496 53.543C115.957 53.543 116.363 53.6211 116.715 53.7773C117.07 53.9336 117.348 54.1699 117.547 54.4863C117.75 54.7988 117.852 55.1914 117.852 55.6641V58.6172C117.852 58.8281 117.869 59.0527 117.904 59.291C117.943 59.5293 118 59.7344 118.074 59.9062V60H116.943C116.889 59.875 116.846 59.709 116.814 59.502C116.783 59.291 116.768 59.0957 116.768 58.916ZM116.955 56.1562L116.967 56.918H115.871C115.562 56.918 115.287 56.9434 115.045 56.9941C114.803 57.041 114.6 57.1133 114.436 57.2109C114.271 57.3086 114.146 57.4316 114.061 57.5801C113.975 57.7246 113.932 57.8945 113.932 58.0898C113.932 58.2891 113.977 58.4707 114.066 58.6348C114.156 58.7988 114.291 58.9297 114.471 59.0273C114.654 59.1211 114.879 59.168 115.145 59.168C115.477 59.168 115.77 59.0977 116.023 58.957C116.277 58.8164 116.479 58.6445 116.627 58.4414C116.779 58.2383 116.861 58.041 116.873 57.8496L117.336 58.3711C117.309 58.5352 117.234 58.7168 117.113 58.916C116.992 59.1152 116.83 59.3066 116.627 59.4902C116.428 59.6699 116.189 59.8203 115.912 59.9414C115.639 60.0586 115.33 60.1172 114.986 60.1172C114.557 60.1172 114.18 60.0332 113.855 59.8652C113.535 59.6973 113.285 59.4727 113.105 59.1914C112.93 58.9062 112.842 58.5879 112.842 58.2363C112.842 57.8965 112.908 57.5977 113.041 57.3398C113.174 57.0781 113.365 56.8613 113.615 56.6895C113.865 56.5137 114.166 56.3809 114.518 56.291C114.869 56.2012 115.262 56.1562 115.695 56.1562H116.955ZM120.641 54.6562V60H119.557V53.6602H120.611L120.641 54.6562ZM122.621 53.625L122.615 54.6328C122.525 54.6133 122.439 54.6016 122.357 54.5977C122.279 54.5898 122.189 54.5859 122.088 54.5859C121.838 54.5859 121.617 54.625 121.426 54.7031C121.234 54.7812 121.072 54.8906 120.939 55.0312C120.807 55.1719 120.701 55.3398 120.623 55.5352C120.549 55.7266 120.5 55.9375 120.477 56.168L120.172 56.3438C120.172 55.9609 120.209 55.6016 120.283 55.2656C120.361 54.9297 120.48 54.6328 120.641 54.375C120.801 54.1133 121.004 53.9102 121.25 53.7656C121.5 53.6172 121.797 53.543 122.141 53.543C122.219 53.543 122.309 53.5527 122.41 53.5723C122.512 53.5879 122.582 53.6055 122.621 53.625ZM124.707 55.0137V60H123.623V53.6602H124.648L124.707 55.0137ZM124.449 56.5898L123.998 56.5723C124.002 56.1387 124.066 55.7383 124.191 55.3711C124.316 55 124.492 54.6777 124.719 54.4043C124.945 54.1309 125.215 53.9199 125.527 53.7715C125.844 53.6191 126.193 53.543 126.576 53.543C126.889 53.543 127.17 53.5859 127.42 53.6719C127.67 53.7539 127.883 53.8867 128.059 54.0703C128.238 54.2539 128.375 54.4922 128.469 54.7852C128.562 55.0742 128.609 55.4277 128.609 55.8457V60H127.52V55.834C127.52 55.502 127.471 55.2363 127.373 55.0371C127.275 54.834 127.133 54.6875 126.945 54.5977C126.758 54.5039 126.527 54.457 126.254 54.457C125.984 54.457 125.738 54.5137 125.516 54.627C125.297 54.7402 125.107 54.8965 124.947 55.0957C124.791 55.2949 124.668 55.5234 124.578 55.7812C124.492 56.0352 124.449 56.3047 124.449 56.5898ZM131.434 53.6602V60H130.344V53.6602H131.434ZM130.262 51.9785C130.262 51.8027 130.314 51.6543 130.42 51.5332C130.529 51.4121 130.689 51.3516 130.9 51.3516C131.107 51.3516 131.266 51.4121 131.375 51.5332C131.488 51.6543 131.545 51.8027 131.545 51.9785C131.545 52.1465 131.488 52.291 131.375 52.4121C131.266 52.5293 131.107 52.5879 130.9 52.5879C130.689 52.5879 130.529 52.5293 130.42 52.4121C130.314 52.291 130.262 52.1465 130.262 51.9785ZM134.258 55.0137V60H133.174V53.6602H134.199L134.258 55.0137ZM134 56.5898L133.549 56.5723C133.553 56.1387 133.617 55.7383 133.742 55.3711C133.867 55 134.043 54.6777 134.27 54.4043C134.496 54.1309 134.766 53.9199 135.078 53.7715C135.395 53.6191 135.744 53.543 136.127 53.543C136.439 53.543 136.721 53.5859 136.971 53.6719C137.221 53.7539 137.434 53.8867 137.609 54.0703C137.789 54.2539 137.926 54.4922 138.02 54.7852C138.113 55.0742 138.16 55.4277 138.16 55.8457V60H137.07V55.834C137.07 55.502 137.021 55.2363 136.924 55.0371C136.826 54.834 136.684 54.6875 136.496 54.5977C136.309 54.5039 136.078 54.457 135.805 54.457C135.535 54.457 135.289 54.5137 135.066 54.627C134.848 54.7402 134.658 54.8965 134.498 55.0957C134.342 55.2949 134.219 55.5234 134.129 55.7812C134.043 56.0352 134 56.3047 134 56.5898ZM143.914 53.6602H144.898V59.8652C144.898 60.4238 144.785 60.9004 144.559 61.2949C144.332 61.6895 144.016 61.9883 143.609 62.1914C143.207 62.3984 142.742 62.502 142.215 62.502C141.996 62.502 141.738 62.4668 141.441 62.3965C141.148 62.3301 140.859 62.2148 140.574 62.0508C140.293 61.8906 140.057 61.6738 139.865 61.4004L140.434 60.7559C140.699 61.0762 140.977 61.2988 141.266 61.4238C141.559 61.5488 141.848 61.6113 142.133 61.6113C142.477 61.6113 142.773 61.5469 143.023 61.418C143.273 61.2891 143.467 61.0977 143.604 60.8438C143.744 60.5938 143.814 60.2852 143.814 59.918V55.0547L143.914 53.6602ZM139.549 56.9004V56.7773C139.549 56.293 139.605 55.8535 139.719 55.459C139.836 55.0605 140.002 54.7188 140.217 54.4336C140.436 54.1484 140.699 53.9297 141.008 53.7773C141.316 53.6211 141.664 53.543 142.051 53.543C142.449 53.543 142.797 53.6133 143.094 53.7539C143.395 53.8906 143.648 54.0918 143.855 54.3574C144.066 54.6191 144.232 54.9355 144.354 55.3066C144.475 55.6777 144.559 56.0977 144.605 56.5664V57.1055C144.562 57.5703 144.479 57.9883 144.354 58.3594C144.232 58.7305 144.066 59.0469 143.855 59.3086C143.648 59.5703 143.395 59.7715 143.094 59.9121C142.793 60.0488 142.441 60.1172 142.039 60.1172C141.66 60.1172 141.316 60.0371 141.008 59.877C140.703 59.7168 140.441 59.4922 140.223 59.2031C140.004 58.9141 139.836 58.5742 139.719 58.1836C139.605 57.7891 139.549 57.3613 139.549 56.9004ZM140.633 56.7773V56.9004C140.633 57.2168 140.664 57.5137 140.727 57.791C140.793 58.0684 140.893 58.3125 141.025 58.5234C141.162 58.7344 141.336 58.9004 141.547 59.0215C141.758 59.1387 142.01 59.1973 142.303 59.1973C142.662 59.1973 142.959 59.1211 143.193 58.9688C143.428 58.8164 143.613 58.6152 143.75 58.3652C143.891 58.1152 144 57.8438 144.078 57.5508V56.1387C144.035 55.9238 143.969 55.7168 143.879 55.5176C143.793 55.3145 143.68 55.1348 143.539 54.9785C143.402 54.8184 143.232 54.6914 143.029 54.5977C142.826 54.5039 142.588 54.457 142.314 54.457C142.018 54.457 141.762 54.5195 141.547 54.6445C141.336 54.7656 141.162 54.9336 141.025 55.1484C140.893 55.3594 140.793 55.6055 140.727 55.8867C140.664 56.1641 140.633 56.4609 140.633 56.7773Z" fill="white"/>
<g clip-path="url(#clip0_133_159)">
<path d="M26.6172 41.2481L28.4352 39.948L31.8985 42.8934L35.4482 40.4011L35.4455 38.13L31.9417 35.5352L22.636 42.5886V49.0379L31.6423 56.032L31.68 62.3248L19 52.7601V40.4254L30.5121 31.554H33.498L39.4294 36.6168V42.5886L33.3254 47.3062L30.3826 47.3925L26.6172 44.1045V41.2481Z" fill="white"/>
<path d="M42.4153 32.7017V42.795L44.0148 43.8335L46 42.447V30.792L42.4153 32.7017Z" fill="white"/>
<path d="M33.4117 55.0756L41.509 47.9736L44.0579 49.7323V51.4046L33.4117 60.3138V55.0756Z" fill="white"/>
<path d="M32.0981 20L19 29.6941V38.8703L23.7904 35.2559V31.1372L32.0981 25.079V20Z" fill="white"/>
<path d="M33.4117 25.0359V20L35.6909 21.8477L45.6466 29.2895L42.213 31.3395L33.4117 25.0359Z" fill="white"/>
</g>
<defs>
<linearGradient id="paint0_linear_133_159" x1="391" y1="109" x2="-40" y2="-23" gradientUnits="userSpaceOnUse">
<stop stop-color="#2B73FF"/>
<stop offset="1" stop-color="#232323"/>
</linearGradient>
<clipPath id="clip0_133_159">
<rect width="27" height="42.3854" fill="white" transform="translate(19 20)"/>
</clipPath>
</defs>
</svg>
