<svg width="121" height="241" viewBox="0 0 121 241" fill="none" xmlns="http://www.w3.org/2000/svg">
<g clip-path="url(#clip0_35_284)">
<path d="M54.7446 168.01L49.2911 171.91L38.9021 163.074L28.2541 170.55L28.2622 177.363L38.7726 185.147L66.6871 163.988L66.6871 144.642L39.6708 123.662L39.5575 104.785L77.594 133.477L77.594 170.478L43.0609 197.089L34.104 197.089L16.3116 181.902L16.3116 163.988L34.6219 149.837L43.4493 149.578L54.7446 159.441L54.7446 168.01Z" fill="#2B73FF"/>
<path d="M7.35474 193.829L7.35474 163.551L2.55668 160.436L-3.39841 164.595L-3.39841 199.557L7.35474 193.829Z" fill="#2B73FF"/>
<path d="M34.3629 126.713L10.0733 148.017L2.42712 142.741L2.42712 137.725L34.3629 111L34.3629 126.713Z" fill="#2B73FF"/>
<path d="M38.3033 231.93L77.594 202.85L77.594 175.324L63.2241 186.166L63.2241 198.522L38.3033 216.694L38.3033 231.93Z" fill="#2B73FF"/>
<path d="M34.3629 216.824L34.3629 231.93L27.5259 226.387L-2.33856 204.064L7.96148 197.915L34.3629 216.824Z" fill="#2B73FF"/>
</g>
<g clip-path="url(#clip1_35_284)">
<path d="M98.106 278.572L92.6526 282.471L82.2635 273.636L71.6156 281.112L71.6237 287.925L82.1341 295.709L110.049 274.55L110.049 255.204L83.0322 234.224L82.9189 215.347L120.955 244.038L120.955 281.039L86.4224 307.651L77.4655 307.651L59.673 292.464L59.673 274.55L77.9833 260.399L86.8108 260.14L98.106 270.003L98.106 278.572Z" fill="#1F4388"/>
<path d="M77.7244 237.274L53.4347 258.578L45.7886 253.303L45.7886 248.286L77.7244 221.561L77.7244 237.274Z" fill="#1F4388"/>
</g>
<g clip-path="url(#clip2_35_284)">
<path d="M5.14301 63.2243L-0.310426 67.1243L-10.6995 58.2887L-21.3474 65.765L-21.3393 72.5777L-10.8289 80.3614L17.0856 59.203L17.0856 39.8571L-9.93081 18.8767L-10.0441 3.48217e-05L27.9924 28.6913L27.9924 65.6921L-6.54062 92.304L-15.4975 92.304L-33.29 77.1168L-33.29 59.203L-14.9797 45.0516L-6.15224 44.7927L5.14301 54.6558L5.14301 63.2243Z" fill="#1F4388"/>
<path d="M-11.2982 127.145L27.9924 98.0649L27.9924 70.5388L13.6225 81.3809L13.6225 93.7361L-11.2982 111.909L-11.2982 127.145Z" fill="#1F4388"/>
</g>
<defs>
<clipPath id="clip0_35_284">
<rect width="80.9925" height="127.144" fill="white" transform="translate(77.594 231.93) rotate(-180)"/>
</clipPath>
<clipPath id="clip1_35_284">
<rect width="80.9925" height="127.144" fill="white" transform="translate(120.955 342.492) rotate(-180)"/>
</clipPath>
<clipPath id="clip2_35_284">
<rect width="80.9925" height="127.144" fill="white" transform="translate(27.9924 127.145) rotate(-180)"/>
</clipPath>
</defs>
</svg>
