<svg width="94" height="275" viewBox="0 0 94 275" fill="none" xmlns="http://www.w3.org/2000/svg">
<g clip-path="url(#clip0_35_224)">
<path d="M56.2661 131.27L60.9004 127.956L69.729 135.464L78.7777 129.111L78.7708 123.321L69.8391 116.707L46.1173 134.687V151.127L69.0758 168.956L69.1721 184.998L36.8486 160.616V129.173L66.1949 106.558H73.8064L88.9265 119.464V134.687L73.3664 146.713L65.8648 146.933L56.2661 138.551V131.27Z" fill="#2B73FF"/>
<path d="M73.5864 166.364L94.2278 148.26L100.725 152.743V157.006L73.5864 179.717V166.364Z" fill="#2B73FF"/>
<path d="M70.2379 76.9503L36.8486 101.662V125.054L49.0602 115.84V105.341L70.2379 89.8976V76.9503Z" fill="#2B73FF"/>
<path d="M73.5864 89.7876V76.9503L79.3965 81.6603L104.775 100.631L96.0224 105.856L73.5864 89.7876Z" fill="#2B73FF"/>
</g>
<g clip-path="url(#clip1_35_224)">
<path d="M19.4175 37.3194L24.0518 34.0053L32.8804 41.5137L41.9291 35.1604L41.9222 29.3709L32.9904 22.7563L9.26867 40.7367V57.1769L32.2272 75.0061L32.3235 91.0475L0 66.6656V35.2223L29.3462 12.6075H36.9578L52.0779 25.5136V40.7367L36.5178 52.7626L29.0162 52.9827L19.4175 44.601V37.3194Z" fill="#1F4388"/>
<path d="M59.6895 15.3785V41.108L63.7668 43.7552L68.8275 40.221V10.5104L59.6895 15.3785Z" fill="#1F4388"/>
<path d="M36.7378 72.4139L57.3792 54.3097L63.8769 58.7928V63.0558L36.7378 85.7668V72.4139Z" fill="#1F4388"/>
<path d="M33.3892 -17L0 7.71189V31.1036L12.2115 21.8899V11.3905L33.3892 -4.05273V-17Z" fill="#1F4388"/>
<path d="M36.7378 -4.16275V-17L42.5479 -12.29L67.9267 6.6805L59.1738 11.9062L36.7378 -4.16275Z" fill="#1F4388"/>
</g>
<g clip-path="url(#clip2_35_224)">
<path d="M98.4175 220.319L103.052 217.005L111.88 224.514L120.929 218.16L120.922 212.371L111.99 205.756L88.2687 223.737V240.177L111.227 258.006L111.323 274.047L79 249.666V218.222L108.346 195.607H115.958L131.078 208.513V223.737L115.518 235.763L108.016 235.983L98.4175 227.601V220.319Z" fill="#1F4388"/>
<path d="M112.389 166L79 190.712V214.104L91.2115 204.89V194.39L112.389 178.947V166Z" fill="#1F4388"/>
</g>
<defs>
<clipPath id="clip0_35_224">
<rect width="68.8275" height="108.047" fill="white" transform="translate(36.8486 76.9503)"/>
</clipPath>
<clipPath id="clip1_35_224">
<rect width="68.8275" height="108.047" fill="white" transform="translate(0 -17)"/>
</clipPath>
<clipPath id="clip2_35_224">
<rect width="68.8275" height="108.047" fill="white" transform="translate(79 166)"/>
</clipPath>
</defs>
</svg>
