<svg width="312" height="39" viewBox="0 0 312 39" fill="none" xmlns="http://www.w3.org/2000/svg">
<path d="M48.6598 6.10449C50.2973 6.10449 51.4139 7.2613 51.4139 8.79127V29.5391C51.4139 31.0318 50.2973 32.2259 48.6598 32.2259H34.6661V6.10449H48.6598ZM46.8734 11.0676C46.8734 10.5824 46.6873 10.3212 46.1662 10.3212H39.2066V28.0092H46.1662C46.6873 28.0092 46.8734 27.7479 46.8734 27.2628V11.0676Z" fill="white"/>
<path d="M71.1706 10.3212H60.7126V17.0009H68.5282V21.2549H60.7126V28.0092H71.1706V32.2259H56.1721V6.10449H71.1706V10.3212Z" fill="white"/>
<path d="M93.2829 6.10449L87.2165 19.1652L93.2829 32.2259H88.2958L84.0158 23.0461L79.7358 32.2259H74.7487L80.8523 19.1652L74.7487 6.10449H79.7358L84.0158 15.2843L88.2958 6.10449H93.2829Z" fill="white"/>
<path d="M110.434 6.10449C112.072 6.10449 113.189 7.2613 113.189 8.79127V20.434C113.189 21.9266 112.072 23.1207 110.434 23.1207H101.726V32.2259H97.1852V6.10449H110.434ZM108.648 11.0676C108.648 10.5824 108.462 10.3212 107.941 10.3212H101.726V18.8667H107.941C108.462 18.8667 108.648 18.6055 108.648 18.1577V11.0676Z" fill="white"/>
<path d="M132.527 10.3212H122.069V17.0009H129.884V21.2549H122.069V28.0092H132.527V32.2259H117.528V6.10449H132.527V10.3212Z" fill="white"/>
<path d="M151.029 6.10449C152.666 6.10449 153.783 7.2613 153.783 8.79127V29.5391C153.783 31.0318 152.666 32.2259 151.029 32.2259H137.035V6.10449H151.029ZM149.242 11.0676C149.242 10.5824 149.056 10.3212 148.535 10.3212H141.576V28.0092H148.535C149.056 28.0092 149.242 27.7479 149.242 27.2628V11.0676Z" fill="white"/>
<path d="M158.653 32.2259V6.10449H163.193V32.2259H158.653Z" fill="white"/>
<path d="M182.385 32.2259L180.785 26.4046H173.007L171.406 32.2259H166.791L174.458 6.10449H179.334L187 32.2259H182.385ZM174.16 22.1878H179.631L176.914 12.1497L174.16 22.1878Z" fill="white"/>
<g clip-path="url(#clip0_35_267)">
<path d="M6.8941 19.2311L8.5395 18.0545L11.6741 20.7203L14.8868 18.4646L14.8843 16.4091L11.7131 14.0606L3.29081 20.4444V26.2815L11.4422 32.6116L11.4763 38.3071L0 29.6504V18.4866L10.4193 10.4573H13.1217L18.49 15.0395V20.4444L12.9655 24.7142L10.3021 24.7923L6.8941 21.8164V19.2311Z" fill="#2B73FF"/>
<path d="M21.1925 11.4957V20.6309L22.6402 21.5708L24.4369 20.316V9.76733L21.1925 11.4957Z" fill="#2B73FF"/>
<path d="M13.0436 31.7462L20.3722 25.3184L22.6792 26.9101V28.4236L13.0436 36.4871V31.7462Z" fill="#2B73FF"/>
<path d="M11.8547 0L0 8.77386V17.079L4.33567 13.8077V10.0799L11.8547 4.59688V0Z" fill="#2B73FF"/>
<path d="M13.0436 4.55782V0L15.1064 1.67226L24.1171 8.40768L21.0094 10.263L13.0436 4.55782Z" fill="#2B73FF"/>
</g>
<path d="M217.941 6H222.962L218.536 32H212.549L209.499 18.8886L206.413 32H200.425L196 6H201.02L203.735 24.5343L207.417 9.26857H211.545L215.226 24.5343L217.941 6Z" fill="#2B73FF"/>
<path d="M237.403 32L235.804 26.2057H228.032L226.433 32H221.821L229.482 6H234.354L242.015 32H237.403ZM229.185 22.0086H234.651L231.937 12.0171L229.185 22.0086Z" fill="#2B73FF"/>
<path d="M248.937 27.8029H258.532V32H244.4V6H248.937V27.8029Z" fill="#2B73FF"/>
<path d="M265.498 27.8029H275.092V32H260.961V6H265.498V27.8029Z" fill="#2B73FF"/>
<path d="M292.508 10.1971H282.058V16.8457H289.868V21.08H282.058V27.8029H292.508V32H277.521V6H292.508V10.1971Z" fill="#2B73FF"/>
<path d="M312 6V10.1971H305.938V32H301.401V10.1971H295.265V6H312Z" fill="#2B73FF"/>
<defs>
<clipPath id="clip0_35_267">
<rect width="24.4369" height="38.3619" fill="white"/>
</clipPath>
</defs>
</svg>
