<svg width="33" height="33" viewBox="0 0 33 33" fill="none" xmlns="http://www.w3.org/2000/svg">
  <circle cx="16.9873" cy="16.3208" r="16" fill="#FF4500"/>
  <mask id="mask0_44_15376" style="mask-type:luminance" maskUnits="userSpaceOnUse" x="5" y="5" width="24" height="23">
    <path d="M28.2524 5.08496H5.75684V27.5806H28.2524V5.08496Z" fill="white"/>
  </mask>
  <g mask="url(#mask0_44_15376)">
    <path fill-rule="evenodd" clip-rule="evenodd" d="M11.4611 5.08496H5.83718V10.7089C5.83718 13.5728 7.97789 15.9367 10.7465 16.2878C7.93908 16.6029 5.75684 18.9848 5.75684 21.8764L5.75684 27.5003H11.3807C14.2447 27.5003 16.6086 25.3595 16.9597 22.5909C17.2748 25.3984 19.6566 27.5806 22.5482 27.5806H28.1721V21.9567C28.1721 19.0927 26.0313 16.7288 23.2628 16.3778C26.0703 16.0626 28.2524 13.6808 28.2524 10.7892V5.1653L22.6285 5.1653C19.7646 5.1653 17.4007 7.30602 17.0496 10.0746C16.7345 7.2672 14.3526 5.08496 11.4611 5.08496Z" fill="#121212"/>
  </g>
</svg>
